<svg width="104" height="104" viewBox="0 0 104 104" fill="none" xmlns="http://www.w3.org/2000/svg">
<rect x="0.5" y="0.5" width="103" height="103" rx="7.5" fill="white"/>
<rect x="0.5" y="0.5" width="103" height="103" rx="7.5" stroke="#D1D1D1"/>
<rect width="40" height="40" transform="translate(23 12)" fill="white"/>
<path d="M54.6667 17H31.3333C29.4924 17 28 18.4924 28 20.3333V43.6667C28 45.5076 29.4924 47 31.3333 47H54.6667C56.5076 47 58 45.5076 58 43.6667V20.3333C58 18.4924 56.5076 17 54.6667 17Z" stroke="#10B989" stroke-width="2" stroke-linecap="round" stroke-linejoin="round"/>
<path d="M37.1666 28.6667C38.5473 28.6667 39.6666 27.5474 39.6666 26.1667C39.6666 24.786 38.5473 23.6667 37.1666 23.6667C35.7859 23.6667 34.6666 24.786 34.6666 26.1667C34.6666 27.5474 35.7859 28.6667 37.1666 28.6667Z" stroke="#10B989" stroke-width="2" stroke-linecap="round" stroke-linejoin="round"/>
<path d="M58 37L49.6667 28.6667L31.3334 47" stroke="#10B989" stroke-width="2" stroke-linecap="round" stroke-linejoin="round"/>
<path d="M69 37V51" stroke="#10B989" stroke-width="2" stroke-linecap="round" stroke-linejoin="round"/>
<path d="M62 44H76" stroke="#10B989" stroke-width="2" stroke-linecap="round" stroke-linejoin="round"/>
<path d="M18.9462 73V63.907H15.4252V62.92H23.4962V63.907H19.9752V73H18.9462ZM25.7973 73.21C25.228 73.21 24.7496 73.1073 24.3623 72.902C23.9796 72.6967 23.6926 72.4237 23.5013 72.083C23.31 71.7423 23.2143 71.3713 23.2143 70.97C23.2143 70.5593 23.296 70.2093 23.4593 69.92C23.6273 69.626 23.8536 69.3857 24.1383 69.199C24.4276 69.0123 24.7613 68.87 25.1393 68.772C25.522 68.6787 25.9443 68.597 26.4063 68.527C26.873 68.4523 27.328 68.3893 27.7713 68.338C28.2193 68.282 28.6113 68.2283 28.9473 68.177L28.5833 68.401C28.5973 67.6543 28.4526 67.1013 28.1493 66.742C27.846 66.3827 27.3186 66.203 26.5673 66.203C26.0493 66.203 25.6106 66.3197 25.2513 66.553C24.8966 66.7863 24.647 67.155 24.5023 67.659L23.5013 67.365C23.674 66.6883 24.0216 66.1633 24.5443 65.79C25.067 65.4167 25.746 65.23 26.5813 65.23C27.272 65.23 27.8576 65.3607 28.3383 65.622C28.8236 65.8787 29.1666 66.252 29.3673 66.742C29.4606 66.9613 29.5213 67.2063 29.5493 67.477C29.5773 67.7477 29.5913 68.023 29.5913 68.303V73H28.6743V71.103L28.9403 71.215C28.6836 71.8637 28.2846 72.3583 27.7433 72.699C27.202 73.0397 26.5533 73.21 25.7973 73.21ZM25.9163 72.321C26.397 72.321 26.817 72.2347 27.1763 72.062C27.5356 71.8893 27.825 71.6537 28.0443 71.355C28.2636 71.0517 28.406 70.711 28.4713 70.333C28.5273 70.0903 28.5576 69.8243 28.5623 69.535C28.567 69.241 28.5693 69.0217 28.5693 68.877L28.9613 69.08C28.6113 69.1267 28.231 69.1733 27.8203 69.22C27.4143 69.2667 27.013 69.3203 26.6163 69.381C26.2243 69.4417 25.8696 69.514 25.5523 69.598C25.3376 69.6587 25.13 69.745 24.9293 69.857C24.7286 69.9643 24.563 70.109 24.4323 70.291C24.3063 70.473 24.2433 70.6993 24.2433 70.97C24.2433 71.1893 24.297 71.4017 24.4043 71.607C24.5163 71.8123 24.6936 71.9827 24.9363 72.118C25.1836 72.2533 25.5103 72.321 25.9163 72.321ZM40.4296 73L40.4366 68.037C40.4366 67.4537 40.2733 66.9963 39.9466 66.665C39.6246 66.329 39.2139 66.161 38.7146 66.161C38.4299 66.161 38.1523 66.2263 37.8816 66.357C37.6109 66.4877 37.3869 66.6977 37.2096 66.987C37.0369 67.2763 36.9506 67.6543 36.9506 68.121L36.3416 67.946C36.3276 67.4047 36.4326 66.931 36.6566 66.525C36.8853 66.119 37.1979 65.804 37.5946 65.58C37.9959 65.3513 38.4486 65.237 38.9526 65.237C39.7133 65.237 40.3223 65.4727 40.7796 65.944C41.2369 66.4107 41.4656 67.043 41.4656 67.841L41.4586 73H40.4296ZM31.4066 73V65.44H32.3306V67.302H32.4426V73H31.4066ZM35.9286 73L35.9356 68.107C35.9356 67.505 35.7746 67.0313 35.4526 66.686C35.1353 66.336 34.7153 66.161 34.1926 66.161C33.6699 66.161 33.2476 66.3407 32.9256 66.7C32.6036 67.0547 32.4426 67.5283 32.4426 68.121L31.8266 67.785C31.8266 67.2997 31.9409 66.8657 32.1696 66.483C32.3983 66.0957 32.7109 65.7923 33.1076 65.573C33.5043 65.349 33.9546 65.237 34.4586 65.237C34.9393 65.237 35.3663 65.3397 35.7396 65.545C36.1176 65.7503 36.4139 66.049 36.6286 66.441C36.8433 66.833 36.9506 67.309 36.9506 67.869L36.9436 73H35.9286ZM46.6758 73.21C45.9804 73.21 45.3924 73.035 44.9118 72.685C44.4311 72.3303 44.0671 71.852 43.8198 71.25C43.5724 70.6433 43.4488 69.9643 43.4488 69.213C43.4488 68.4477 43.5724 67.7663 43.8198 67.169C44.0718 66.567 44.4404 66.0933 44.9258 65.748C45.4111 65.4027 46.0084 65.23 46.7178 65.23C47.4084 65.23 48.0011 65.405 48.4958 65.755C48.9904 66.105 49.3684 66.581 49.6298 67.183C49.8958 67.785 50.0288 68.4617 50.0288 69.213C50.0288 69.969 49.8958 70.648 49.6298 71.25C49.3638 71.852 48.9811 72.3303 48.4818 72.685C47.9824 73.035 47.3804 73.21 46.6758 73.21ZM43.2738 73V62.92H44.3098V67.309H44.1978V73H43.2738ZM46.5708 72.251C47.0981 72.251 47.5368 72.118 47.8868 71.852C48.2368 71.586 48.4981 71.2243 48.6708 70.767C48.8481 70.305 48.9368 69.787 48.9368 69.213C48.9368 68.6437 48.8504 68.1303 48.6778 67.673C48.5051 67.2157 48.2414 66.854 47.8868 66.588C47.5368 66.322 47.0911 66.189 46.5498 66.189C46.0224 66.189 45.5838 66.3173 45.2338 66.574C44.8884 66.8307 44.6294 67.1877 44.4568 67.645C44.2841 68.0977 44.1978 68.6203 44.1978 69.213C44.1978 69.7963 44.2841 70.319 44.4568 70.781C44.6294 71.2383 44.8908 71.5977 45.2408 71.859C45.5908 72.1203 46.0341 72.251 46.5708 72.251ZM53.7289 73.21C53.1596 73.21 52.6813 73.1073 52.2939 72.902C51.9113 72.6967 51.6243 72.4237 51.4329 72.083C51.2416 71.7423 51.1459 71.3713 51.1459 70.97C51.1459 70.5593 51.2276 70.2093 51.3909 69.92C51.5589 69.626 51.7853 69.3857 52.0699 69.199C52.3593 69.0123 52.6929 68.87 53.0709 68.772C53.4536 68.6787 53.8759 68.597 54.3379 68.527C54.8046 68.4523 55.2596 68.3893 55.7029 68.338C56.1509 68.282 56.5429 68.2283 56.8789 68.177L56.5149 68.401C56.5289 67.6543 56.3843 67.1013 56.0809 66.742C55.7776 66.3827 55.2503 66.203 54.4989 66.203C53.9809 66.203 53.5423 66.3197 53.1829 66.553C52.8283 66.7863 52.5786 67.155 52.4339 67.659L51.4329 67.365C51.6056 66.6883 51.9533 66.1633 52.4759 65.79C52.9986 65.4167 53.6776 65.23 54.5129 65.23C55.2036 65.23 55.7893 65.3607 56.2699 65.622C56.7553 65.8787 57.0983 66.252 57.2989 66.742C57.3923 66.9613 57.4529 67.2063 57.4809 67.477C57.5089 67.7477 57.5229 68.023 57.5229 68.303V73H56.6059V71.103L56.8719 71.215C56.6153 71.8637 56.2163 72.3583 55.6749 72.699C55.1336 73.0397 54.4849 73.21 53.7289 73.21ZM53.8479 72.321C54.3286 72.321 54.7486 72.2347 55.1079 72.062C55.4673 71.8893 55.7566 71.6537 55.9759 71.355C56.1953 71.0517 56.3376 70.711 56.4029 70.333C56.4589 70.0903 56.4893 69.8243 56.4939 69.535C56.4986 69.241 56.5009 69.0217 56.5009 68.877L56.8929 69.08C56.5429 69.1267 56.1626 69.1733 55.7519 69.22C55.3459 69.2667 54.9446 69.3203 54.5479 69.381C54.1559 69.4417 53.8013 69.514 53.4839 69.598C53.2693 69.6587 53.0616 69.745 52.8609 69.857C52.6603 69.9643 52.4946 70.109 52.3639 70.291C52.2379 70.473 52.1749 70.6993 52.1749 70.97C52.1749 71.1893 52.2286 71.4017 52.3359 71.607C52.4479 71.8123 52.6253 71.9827 52.8679 72.118C53.1153 72.2533 53.4419 72.321 53.8479 72.321ZM64.8052 73V69.143C64.8052 68.723 64.7656 68.338 64.6862 67.988C64.6069 67.6333 64.4786 67.3253 64.3012 67.064C64.1286 66.798 63.9022 66.5927 63.6222 66.448C63.3469 66.3033 63.0109 66.231 62.6142 66.231C62.2502 66.231 61.9282 66.294 61.6482 66.42C61.3729 66.546 61.1396 66.728 60.9482 66.966C60.7616 67.1993 60.6192 67.484 60.5212 67.82C60.4232 68.156 60.3742 68.5387 60.3742 68.968L59.6462 68.807C59.6462 68.0323 59.7816 67.3813 60.0522 66.854C60.3229 66.3267 60.6962 65.9277 61.1722 65.657C61.6482 65.3863 62.1942 65.251 62.8102 65.251C63.2629 65.251 63.6572 65.321 63.9932 65.461C64.3339 65.601 64.6209 65.79 64.8542 66.028C65.0922 66.266 65.2836 66.539 65.4282 66.847C65.5729 67.1503 65.6779 67.4747 65.7432 67.82C65.8086 68.1607 65.8412 68.5013 65.8412 68.842V73H64.8052ZM59.3382 73V62.92H60.2692V68.611H60.3742V73H59.3382ZM67.6507 73L67.6577 62.92H68.6937V69.08L72.0677 65.44H73.4397L69.8977 69.22L73.9017 73H72.4037L68.6937 69.36V73H67.6507ZM76.766 73.21C76.1967 73.21 75.7184 73.1073 75.331 72.902C74.9484 72.6967 74.6614 72.4237 74.47 72.083C74.2787 71.7423 74.183 71.3713 74.183 70.97C74.183 70.5593 74.2647 70.2093 74.428 69.92C74.596 69.626 74.8224 69.3857 75.107 69.199C75.3964 69.0123 75.73 68.87 76.108 68.772C76.4907 68.6787 76.913 68.597 77.375 68.527C77.8417 68.4523 78.2967 68.3893 78.74 68.338C79.188 68.282 79.58 68.2283 79.916 68.177L79.552 68.401C79.566 67.6543 79.4214 67.1013 79.118 66.742C78.8147 66.3827 78.2874 66.203 77.536 66.203C77.018 66.203 76.5794 66.3197 76.22 66.553C75.8654 66.7863 75.6157 67.155 75.471 67.659L74.47 67.365C74.6427 66.6883 74.9904 66.1633 75.513 65.79C76.0357 65.4167 76.7147 65.23 77.55 65.23C78.2407 65.23 78.8264 65.3607 79.307 65.622C79.7924 65.8787 80.1354 66.252 80.336 66.742C80.4294 66.9613 80.49 67.2063 80.518 67.477C80.546 67.7477 80.56 68.023 80.56 68.303V73H79.643V71.103L79.909 71.215C79.6524 71.8637 79.2534 72.3583 78.712 72.699C78.1707 73.0397 77.522 73.21 76.766 73.21ZM76.885 72.321C77.3657 72.321 77.7857 72.2347 78.145 72.062C78.5044 71.8893 78.7937 71.6537 79.013 71.355C79.2324 71.0517 79.3747 70.711 79.44 70.333C79.496 70.0903 79.5264 69.8243 79.531 69.535C79.5357 69.241 79.538 69.0217 79.538 68.877L79.93 69.08C79.58 69.1267 79.1997 69.1733 78.789 69.22C78.383 69.2667 77.9817 69.3203 77.585 69.381C77.193 69.4417 76.8384 69.514 76.521 69.598C76.3064 69.6587 76.0987 69.745 75.898 69.857C75.6974 69.9643 75.5317 70.109 75.401 70.291C75.275 70.473 75.212 70.6993 75.212 70.97C75.212 71.1893 75.2657 71.4017 75.373 71.607C75.485 71.8123 75.6624 71.9827 75.905 72.118C76.1524 72.2533 76.479 72.321 76.885 72.321ZM87.8423 73V69.143C87.8423 68.723 87.8027 68.338 87.7233 67.988C87.644 67.6333 87.5157 67.3253 87.3383 67.064C87.1657 66.798 86.9393 66.5927 86.6593 66.448C86.384 66.3033 86.048 66.231 85.6513 66.231C85.2873 66.231 84.9653 66.294 84.6853 66.42C84.41 66.546 84.1767 66.728 83.9853 66.966C83.7987 67.1993 83.6563 67.484 83.5583 67.82C83.4603 68.156 83.4113 68.5387 83.4113 68.968L82.6833 68.807C82.6833 68.0323 82.8187 67.3813 83.0893 66.854C83.36 66.3267 83.7333 65.9277 84.2093 65.657C84.6853 65.3863 85.2313 65.251 85.8473 65.251C86.3 65.251 86.6943 65.321 87.0303 65.461C87.371 65.601 87.658 65.79 87.8913 66.028C88.1293 66.266 88.3207 66.539 88.4653 66.847C88.61 67.1503 88.715 67.4747 88.7803 67.82C88.8457 68.1607 88.8783 68.5013 88.8783 68.842V73H87.8423ZM82.3753 73V65.44H83.3063V67.302H83.4113V73H82.3753ZM39.104 92V81.92H44.893V82.949H40.133V86.449H44.053V87.471H40.133V92H39.104ZM49.1106 92.21C48.3593 92.21 47.7176 92.0397 47.1856 91.699C46.6536 91.3583 46.2453 90.887 45.9606 90.285C45.676 89.683 45.5336 88.9923 45.5336 88.213C45.5336 87.4197 45.6783 86.7243 45.9676 86.127C46.257 85.5297 46.6676 85.0653 47.1996 84.734C47.7363 84.398 48.3733 84.23 49.1106 84.23C49.8666 84.23 50.5106 84.4003 51.0426 84.741C51.5793 85.077 51.9876 85.546 52.2676 86.148C52.5523 86.7453 52.6946 87.4337 52.6946 88.213C52.6946 89.0063 52.5523 89.704 52.2676 90.306C51.983 90.9033 51.5723 91.37 51.0356 91.706C50.499 92.042 49.8573 92.21 49.1106 92.21ZM49.1106 91.223C49.9506 91.223 50.576 90.9453 50.9866 90.39C51.3973 89.83 51.6026 89.1043 51.6026 88.213C51.6026 87.2983 51.395 86.5703 50.9796 86.029C50.569 85.4877 49.946 85.217 49.1106 85.217C48.546 85.217 48.0793 85.3453 47.7106 85.602C47.3466 85.854 47.0736 86.2063 46.8916 86.659C46.7143 87.107 46.6256 87.625 46.6256 88.213C46.6256 89.123 46.8356 89.8533 47.2556 90.404C47.6756 90.95 48.294 91.223 49.1106 91.223ZM58.3548 92C57.9301 92.0887 57.5101 92.1237 57.0948 92.105C56.6841 92.0863 56.3155 91.9977 55.9888 91.839C55.6668 91.6803 55.4218 91.433 55.2538 91.097C55.1185 90.817 55.0438 90.5347 55.0298 90.25C55.0205 89.9607 55.0158 89.6317 55.0158 89.263V82.34H56.0378V89.221C56.0378 89.5383 56.0401 89.8043 56.0448 90.019C56.0541 90.229 56.1031 90.4157 56.1918 90.579C56.3598 90.8917 56.6258 91.0783 56.9898 91.139C57.3585 91.1997 57.8135 91.1857 58.3548 91.097V92ZM53.3988 85.322V84.44H58.3548V85.322H53.3988ZM62.7278 92.21C61.9765 92.21 61.3348 92.0397 60.8028 91.699C60.2708 91.3583 59.8625 90.887 59.5778 90.285C59.2932 89.683 59.1508 88.9923 59.1508 88.213C59.1508 87.4197 59.2955 86.7243 59.5848 86.127C59.8742 85.5297 60.2848 85.0653 60.8168 84.734C61.3535 84.398 61.9905 84.23 62.7278 84.23C63.4838 84.23 64.1278 84.4003 64.6598 84.741C65.1965 85.077 65.6048 85.546 65.8848 86.148C66.1695 86.7453 66.3118 87.4337 66.3118 88.213C66.3118 89.0063 66.1695 89.704 65.8848 90.306C65.6002 90.9033 65.1895 91.37 64.6528 91.706C64.1162 92.042 63.4745 92.21 62.7278 92.21ZM62.7278 91.223C63.5678 91.223 64.1932 90.9453 64.6038 90.39C65.0145 89.83 65.2198 89.1043 65.2198 88.213C65.2198 87.2983 65.0122 86.5703 64.5968 86.029C64.1862 85.4877 63.5632 85.217 62.7278 85.217C62.1632 85.217 61.6965 85.3453 61.3278 85.602C60.9638 85.854 60.6908 86.2063 60.5088 86.659C60.3315 87.107 60.2428 87.625 60.2428 88.213C60.2428 89.123 60.4528 89.8533 60.8728 90.404C61.2928 90.95 61.9112 91.223 62.7278 91.223Z" fill="#10B989"/>
</svg>
